<svg width="471" height="214" viewBox="0 0 471 214" fill="none" xmlns="http://www.w3.org/2000/svg">
<path fill-rule="evenodd" clip-rule="evenodd" d="M157.978 85.7969H139.609V154.593H157.978C162.584 154.593 166.962 153.732 171.101 152.008L171.117 152.001C175.248 150.211 178.9 147.696 182.065 144.462C185.162 141.295 187.572 137.646 189.292 133.521C191.083 129.315 191.978 124.87 191.978 120.195C191.978 115.522 191.084 111.109 189.291 106.968C187.574 102.781 185.168 99.0685 182.074 95.8378L182.055 95.8187C178.889 92.6528 175.238 90.2064 171.109 88.4846C166.969 86.6918 162.588 85.7969 157.978 85.7969ZM22.2289 85.8964H10.9786V154.593H22.2289V126.019H46.621V154.593H57.7717V85.8964H46.621V114.57H22.2289V85.8964ZM209.482 85.8964H198.431V154.593H229.394V143.143H209.482V85.8964ZM98.6332 85.996C93.9565 85.996 89.5091 86.891 85.3021 88.6842L85.2952 88.6871C81.1699 90.4748 77.5212 92.9528 74.3567 96.1174C71.1249 99.3492 68.6122 103.066 66.824 107.262L66.8201 107.271C65.0946 111.412 64.2353 115.823 64.2353 120.493C64.2353 125.17 65.1304 129.648 66.9207 133.917L66.9235 133.924C68.7096 138.114 71.1864 141.798 74.3521 144.965C77.5162 148.196 81.1661 150.71 85.2951 152.499L85.3181 152.509C89.5214 154.231 93.9632 155.09 98.6332 155.09C103.31 155.09 107.757 154.195 111.964 152.402C116.157 150.615 119.841 148.137 123.009 144.969C126.177 141.801 128.656 138.116 130.442 133.924L130.445 133.917C132.236 129.648 133.131 125.17 133.131 120.493C133.131 115.817 132.236 111.369 130.442 107.162C128.656 102.97 126.177 99.2853 123.009 96.1174C119.841 92.9494 116.157 90.4711 111.964 88.6842C107.757 86.891 103.31 85.996 98.6332 85.996ZM151.058 143.143V97.2462H157.978C160.994 97.2462 163.88 97.8422 166.644 99.0359L166.653 99.0399C169.496 100.24 171.947 101.876 174.017 103.944C176.088 106.08 177.69 108.562 178.825 111.398L178.838 111.429C180.03 114.19 180.628 117.108 180.628 120.195C180.628 123.281 180.03 126.236 178.834 129.069L178.829 129.082C177.695 131.853 176.093 134.305 174.017 136.446C171.946 138.514 169.496 140.149 166.653 141.35L166.644 141.354C163.88 142.547 160.994 143.143 157.978 143.143H151.058ZM89.7587 99.3386C92.5918 98.1424 95.5467 97.5449 98.6332 97.5449C101.72 97.5449 104.638 98.1427 107.399 99.335L107.43 99.3476C110.262 100.48 112.741 102.113 114.878 104.249C117.014 106.386 118.646 108.865 119.779 111.697L119.792 111.728C120.984 114.489 121.582 117.407 121.582 120.493C121.582 123.648 120.984 126.671 119.786 129.572C118.585 132.416 116.948 134.867 114.878 136.937C112.738 139.076 110.254 140.745 107.415 141.944C104.651 143.074 101.727 143.641 98.6332 143.641C95.5432 143.641 92.5859 143.075 89.7525 141.944C86.9832 140.746 84.5309 139.079 82.3889 136.937C80.3185 134.866 78.6816 132.415 77.4802 129.571C76.2829 126.671 75.6847 123.648 75.6847 120.493C75.6847 117.4 76.2516 114.476 77.3815 111.712C78.581 108.873 80.2493 106.389 82.3889 104.249C84.5302 102.108 86.9802 100.475 89.7458 99.344L89.7587 99.3386Z" fill="#474C57"/>
<path fill-rule="evenodd" clip-rule="evenodd" d="M335.292 108.877H327.916V154.807H335.292V108.877ZM471 108.877H463.624V154.807H471V108.877ZM390.1 108.943H382.186V154.807H390.1V151.156C391.189 152.114 392.386 152.921 393.69 153.577L393.698 153.581C395.801 154.615 397.99 155.137 400.255 155.137C402.672 155.137 404.998 154.67 407.226 153.738C409.447 152.809 411.374 151.526 412.995 149.886C414.65 148.212 415.931 146.301 416.833 144.157C417.782 141.962 418.256 139.648 418.256 137.226C418.256 134.806 417.783 132.514 416.832 130.36C415.932 128.175 414.652 126.242 412.995 124.566C411.374 122.926 409.447 121.642 407.226 120.713C404.998 119.781 402.672 119.315 400.255 119.315C397.56 119.315 395.131 119.874 392.995 121.019L392.987 121.024C391.894 121.623 390.929 122.279 390.1 122.995V108.943ZM358.665 119.579C356.251 119.579 353.947 120.045 351.762 120.977C349.585 121.862 347.663 123.122 346.002 124.754C344.34 126.388 343.036 128.302 342.09 130.487C341.139 132.684 340.663 135 340.663 137.424C340.663 139.807 341.14 142.081 342.093 144.236C343.04 146.377 344.344 148.265 346.002 149.896C347.661 151.526 349.581 152.807 351.754 153.735C353.941 154.67 356.248 155.137 358.665 155.137C361.124 155.137 363.473 154.671 365.704 153.738C367.922 152.81 369.867 151.53 371.529 149.896C373.19 148.264 374.473 146.372 375.376 144.228C376.326 142.075 376.801 139.804 376.801 137.424C376.801 135.003 376.327 132.69 375.379 130.496C374.477 128.307 373.193 126.39 371.529 124.754C369.866 123.119 367.918 121.859 365.696 120.974C363.468 120.044 361.121 119.579 358.665 119.579ZM302.868 119.777C300.457 119.777 298.156 120.219 295.973 121.106L295.966 121.109C293.837 121.992 291.94 123.227 290.282 124.81L290.277 124.815L290.272 124.82C288.613 126.451 287.309 128.339 286.362 130.48L286.358 130.49C285.451 132.601 285 134.85 285 137.226C285 139.561 285.452 141.826 286.352 144.014L286.356 144.023L286.359 144.031C287.3 146.205 288.573 148.151 290.175 149.866C291.787 151.59 293.683 152.963 295.856 153.985L295.868 153.991L295.88 153.996C298.111 154.976 300.443 155.467 302.868 155.467C306.619 155.467 309.935 154.243 312.788 151.834C312.702 152.858 312.451 153.842 312.033 154.791L312.027 154.804L312.021 154.817C311.532 156.02 310.841 157.078 309.946 157.998C309.056 158.913 308.003 159.631 306.776 160.153C305.558 160.672 304.28 160.932 302.935 160.932C299.991 160.932 297.41 159.7 295.154 157.113L294.61 156.489L287.566 160.609L288.324 161.516C292.382 166.376 297.263 168.877 302.935 168.877C305.351 168.877 307.656 168.411 309.842 167.477C312.062 166.548 313.987 165.266 315.607 163.626C317.262 161.954 318.542 160.044 319.443 157.902C320.395 155.747 320.869 153.454 320.869 151.032V120.372H312.821V123.438C311.992 122.735 311.026 122.085 309.934 121.486C307.843 120.339 305.479 119.777 302.868 119.777ZM439.577 119.909C437.125 119.909 434.801 120.35 432.615 121.238L432.608 121.241C430.473 122.127 428.573 123.388 426.914 125.019C425.252 126.653 423.947 128.566 423.002 130.751L422.997 130.761C422.093 132.912 421.642 135.18 421.642 137.556C421.642 139.932 422.093 142.219 422.994 144.41L422.999 144.423L423.005 144.435C423.952 146.575 425.257 148.444 426.919 150.033C428.577 151.661 430.475 152.92 432.608 153.806L432.615 153.809C434.801 154.696 437.125 155.137 439.577 155.137C441.843 155.137 443.993 154.614 446.016 153.573C447.284 152.92 448.456 152.125 449.531 151.19V154.807H457.579V120.57H449.531V123.522C448.488 122.642 447.325 121.909 446.045 121.323C444.027 120.379 441.867 119.909 439.577 119.909ZM396.335 128.109C397.605 127.586 398.909 127.326 400.255 127.326C401.6 127.326 402.878 127.586 404.096 128.105L404.109 128.11L404.122 128.116C405.337 128.593 406.382 129.286 407.266 130.194C408.162 131.115 408.878 132.199 409.415 133.457L409.42 133.468C409.946 134.661 410.208 135.911 410.208 137.226C410.208 139.903 409.244 142.232 407.267 144.256L407.266 144.258C406.376 145.172 405.323 145.891 404.096 146.413C402.878 146.932 401.6 147.192 400.255 147.192C398.911 147.192 397.609 146.933 396.341 146.411C395.117 145.889 394.065 145.171 393.176 144.258L393.175 144.256C391.198 142.232 390.234 139.903 390.234 137.226C390.234 135.911 390.497 134.661 391.023 133.468L391.027 133.457C391.564 132.199 392.281 131.115 393.176 130.194C394.061 129.286 395.105 128.593 396.32 128.116L396.328 128.113L396.335 128.109ZM351.638 130.342C353.602 128.411 355.927 127.458 358.665 127.458C360.06 127.458 361.359 127.72 362.574 128.237L362.592 128.245L362.61 128.252C363.87 128.731 364.932 129.423 365.811 130.327C366.706 131.247 367.423 132.331 367.96 133.589C368.49 134.833 368.753 136.109 368.753 137.424C368.753 138.739 368.491 139.989 367.965 141.183C367.429 142.397 366.712 143.464 365.811 144.39C364.926 145.299 363.856 146.017 362.585 146.541C361.315 147.064 360.011 147.324 358.665 147.324C357.322 147.324 356.046 147.065 354.829 146.548C353.645 146.025 352.582 145.302 351.638 144.374C350.698 143.45 349.964 142.388 349.433 141.183C348.907 139.989 348.644 138.739 348.644 137.424C348.644 136.109 348.907 134.833 349.438 133.589C349.97 132.34 350.703 131.261 351.638 130.342ZM299.026 128.567C300.244 128.048 301.522 127.789 302.868 127.789C304.213 127.789 305.491 128.048 306.709 128.567L306.722 128.573L306.735 128.578C307.95 129.056 308.994 129.748 309.879 130.657C310.768 131.571 311.459 132.646 311.95 133.893L311.957 133.912L311.965 133.93C312.491 135.123 312.754 136.373 312.754 137.688C312.754 139.004 312.491 140.28 311.961 141.524L311.957 141.531L311.954 141.539C311.466 142.738 310.78 143.768 309.895 144.638C309.003 145.514 307.945 146.217 306.709 146.743C305.491 147.262 304.213 147.522 302.868 147.522C301.522 147.522 300.244 147.262 299.026 146.743C297.79 146.217 296.732 145.514 295.841 144.638C294.951 143.763 294.238 142.727 293.705 141.518C293.176 140.276 292.914 139.002 292.914 137.688C292.914 136.373 293.177 135.123 293.703 133.93L293.707 133.919C294.244 132.661 294.961 131.577 295.856 130.657C296.741 129.748 297.785 129.056 299 128.578L299.013 128.573L299.026 128.567ZM435.657 128.572C436.927 128.048 438.231 127.789 439.577 127.789C440.922 127.789 442.2 128.048 443.419 128.567L443.432 128.573L443.445 128.578C444.669 129.06 445.719 129.736 446.604 130.607C447.484 131.471 448.17 132.518 448.659 133.761L448.667 133.78L448.675 133.798C449.201 134.991 449.463 136.241 449.463 137.556C449.463 138.872 449.201 140.121 448.675 141.315L448.669 141.328L448.663 141.341C448.176 142.54 447.489 143.57 446.604 144.44C445.716 145.313 444.662 146.014 443.432 146.54C442.211 147.018 440.928 147.258 439.577 147.258C438.227 147.258 436.92 147.018 435.65 146.537C434.422 146.012 433.37 145.312 432.483 144.44C431.595 143.567 430.884 142.533 430.351 141.328C429.866 140.133 429.623 138.878 429.623 137.556C429.623 136.232 429.867 134.976 430.353 133.779C430.887 132.528 431.599 131.475 432.483 130.607C433.368 129.736 434.417 129.06 435.642 128.578L435.65 128.575L435.657 128.572Z" fill="#474C57"/>
<path fill-rule="evenodd" clip-rule="evenodd" d="M262.29 162.751L262.29 182.751L198.636 213.375L145.856 198.125L0.5 213.376L145.856 185.125L198.636 201.559L252.428 176.376L252.428 162.751L262.29 162.751Z" fill="#474C57"/>
<path d="M403.5 31.3745L466 0.624512L456.75 63.8745L440 44.3745L405.75 83.8745L315.482 81.505L262.102 116.251L262.102 133.876H251.375L251.375 110.251L311.775 72.5131L399.75 74.1245L431 39.1245L403.5 31.3745Z" fill="#2EC581"/>
<path d="M266 148.377C266 153.624 261.746 157.877 256.5 157.877C251.253 157.877 247 153.624 247 148.377C247 143.13 251.253 138.877 256.5 138.877C261.746 138.877 266 143.13 266 148.377Z" fill="#2EC581"/>
<path fill-rule="evenodd" clip-rule="evenodd" d="M277 148.377C277 159.699 267.822 168.877 256.5 168.877C245.178 168.877 236 159.699 236 148.377C236 137.055 245.178 127.877 256.5 127.877C267.822 127.877 277 137.055 277 148.377ZM256.5 157.877C261.746 157.877 266 153.624 266 148.377C266 143.13 261.746 138.877 256.5 138.877C251.253 138.877 247 143.13 247 148.377C247 153.624 251.253 157.877 256.5 157.877Z" fill="#F8FAFC"/>
</svg>
